REM DIRINDEX 1\2,1\3
REM DIRNAME cjc039,folder01,folder02
TITLE ""
FILE "0641-0680.mp3" MP3
  TRACK 01 AUDIO
    TITLE "0:"
    INDEX 01 00:00:00
  TRACK 02 AUDIO
    TITLE "2:cjc039_0641"
    INDEX 01 00:00:23
  TRACK 03 AUDIO
    TITLE "0:"
    INDEX 01 00:01:28
  TRACK 04 AUDIO
    TITLE "2:cjc039_0642"
    INDEX 01 00:02:00
  TRACK 05 AUDIO
    TITLE "0:"
    INDEX 01 00:03:19
  TRACK 06 AUDIO
    TITLE "2:cjc039_0643"
    INDEX 01 00:03:74
  TRACK 07 AUDIO
    TITLE "0:"
    INDEX 01 00:05:24
  TRACK 08 AUDIO
    TITLE "2:cjc039_0644"
    INDEX 01 00:06:02
  TRACK 09 AUDIO
    TITLE "0:"
    INDEX 01 00:07:27
  TRACK 10 AUDIO
    TITLE "2:cjc039_0645"
    INDEX 01 00:08:01
  TRACK 11 AUDIO
    TITLE "0:"
    INDEX 01 00:09:28
  TRACK 12 AUDIO
    TITLE "2:cjc039_0646"
    INDEX 01 00:10:06
  TRACK 13 AUDIO
    TITLE "0:"
    INDEX 01 00:11:56
  TRACK 14 AUDIO
    TITLE "2:cjc039_0647"
    INDEX 01 00:12:30
  TRACK 15 AUDIO
    TITLE "0:"
    INDEX 01 00:13:65
  TRACK 16 AUDIO
    TITLE "2:cjc039_0648"
    INDEX 01 00:14:43
  TRACK 17 AUDIO
    TITLE "0:"
    INDEX 01 00:15:66
  TRACK 18 AUDIO
    TITLE "2:cjc039_0649"
    INDEX 01 00:16:46
  TRACK 19 AUDIO
    TITLE "0:"
    INDEX 01 00:17:74
  TRACK 20 AUDIO
    TITLE "2:cjc039_0650"
    INDEX 01 00:18:54
  TRACK 21 AUDIO
    TITLE "0:"
    INDEX 01 00:19:71
  TRACK 22 AUDIO
    TITLE "2:cjc039_0651"
    INDEX 01 00:20:45
  TRACK 23 AUDIO
    TITLE "0:"
    INDEX 01 00:22:11
  TRACK 24 AUDIO
    TITLE "2:cjc039_0652"
    INDEX 01 00:22:62
  TRACK 25 AUDIO
    TITLE "0:"
    INDEX 01 00:24:02
  TRACK 26 AUDIO
    TITLE "2:cjc039_0653"
    INDEX 01 00:24:53
  TRACK 27 AUDIO
    TITLE "0:"
    INDEX 01 00:26:17
  TRACK 28 AUDIO
    TITLE "2:cjc039_0654"
    INDEX 01 00:26:67
  TRACK 29 AUDIO
    TITLE "0:"
    INDEX 01 00:28:29
  TRACK 30 AUDIO
    TITLE "2:cjc039_0655"
    INDEX 01 00:29:09
  TRACK 31 AUDIO
    TITLE "0:"
    INDEX 01 00:30:24
  TRACK 32 AUDIO
    TITLE "2:cjc039_0656"
    INDEX 01 00:31:00
  TRACK 33 AUDIO
    TITLE "0:"
    INDEX 01 00:32:52
  TRACK 34 AUDIO
    TITLE "2:cjc039_0657"
    INDEX 01 00:33:22
  TRACK 35 AUDIO
    TITLE "0:"
    INDEX 01 00:34:42
  TRACK 36 AUDIO
    TITLE "2:cjc039_0658"
    INDEX 01 00:35:23
  TRACK 37 AUDIO
    TITLE "0:"
    INDEX 01 00:36:48
  TRACK 38 AUDIO
    TITLE "2:cjc039_0659"
    INDEX 01 00:37:24
  TRACK 39 AUDIO
    TITLE "0:"
    INDEX 01 00:38:65
  TRACK 40 AUDIO
    TITLE "2:cjc039_0660"
    INDEX 01 00:39:45
  TRACK 41 AUDIO
    TITLE "0:"
    INDEX 01 00:41:02
  TRACK 42 AUDIO
    TITLE "2:cjc039_0661"
    INDEX 01 00:41:55
  TRACK 43 AUDIO
    TITLE "0:"
    INDEX 01 00:43:29
  TRACK 44 AUDIO
    TITLE "2:cjc039_0662"
    INDEX 01 00:44:05
  TRACK 45 AUDIO
    TITLE "0:"
    INDEX 01 00:45:10
  TRACK 46 AUDIO
    TITLE "2:cjc039_0663"
    INDEX 01 00:45:65
  TRACK 47 AUDIO
    TITLE "0:"
    INDEX 01 00:47:32
  TRACK 48 AUDIO
    TITLE "2:cjc039_0664"
    INDEX 01 00:48:06
  TRACK 49 AUDIO
    TITLE "0:"
    INDEX 01 00:49:14
  TRACK 50 AUDIO
    TITLE "2:cjc039_0665"
    INDEX 01 00:49:72
  TRACK 51 AUDIO
    TITLE "0:"
    INDEX 01 00:51:46
  TRACK 52 AUDIO
    TITLE "2:cjc039_0666"
    INDEX 01 00:52:24
  TRACK 53 AUDIO
    TITLE "0:"
    INDEX 01 00:53:43
  TRACK 54 AUDIO
    TITLE "2:cjc039_0667"
    INDEX 01 00:54:23
  TRACK 55 AUDIO
    TITLE "0:"
    INDEX 01 00:55:59
  TRACK 56 AUDIO
    TITLE "2:cjc039_0668"
    INDEX 01 00:56:37
  TRACK 57 AUDIO
    TITLE "0:"
    INDEX 01 00:57:56
  TRACK 58 AUDIO
    TITLE "2:cjc039_0669"
    INDEX 01 00:58:30
  TRACK 59 AUDIO
    TITLE "0:"
    INDEX 01 00:59:51
  TRACK 60 AUDIO
    TITLE "2:cjc039_0670"
    INDEX 01 01:00:21
  TRACK 61 AUDIO
    TITLE "0:"
    INDEX 01 01:01:70
  TRACK 62 AUDIO
    TITLE "2:cjc039_0671"
    INDEX 01 01:02:46
  TRACK 63 AUDIO
    TITLE "0:"
    INDEX 01 01:04:05
  TRACK 64 AUDIO
    TITLE "2:cjc039_0672"
    INDEX 01 01:04:56
  TRACK 65 AUDIO
    TITLE "0:"
    INDEX 01 01:06:12
  TRACK 66 AUDIO
    TITLE "2:cjc039_0673"
    INDEX 01 01:06:65
  TRACK 67 AUDIO
    TITLE "0:"
    INDEX 01 01:08:33
  TRACK 68 AUDIO
    TITLE "2:cjc039_0674"
    INDEX 01 01:09:12
  TRACK 69 AUDIO
    TITLE "0:"
    INDEX 01 01:10:55
  TRACK 70 AUDIO
    TITLE "2:cjc039_0675"
    INDEX 01 01:11:31
  TRACK 71 AUDIO
    TITLE "0:"
    INDEX 01 01:12:58
  TRACK 72 AUDIO
    TITLE "2:cjc039_0676"
    INDEX 01 01:13:34
  TRACK 73 AUDIO
    TITLE "0:"
    INDEX 01 01:14:49
  TRACK 74 AUDIO
    TITLE "2:cjc039_0677"
    INDEX 01 01:15:33
  TRACK 75 AUDIO
    TITLE "0:"
    INDEX 01 01:16:60
  TRACK 76 AUDIO
    TITLE "2:cjc039_0678"
    INDEX 01 01:17:37
  TRACK 77 AUDIO
    TITLE "0:"
    INDEX 01 01:18:41
  TRACK 78 AUDIO
    TITLE "2:cjc039_0679"
    INDEX 01 01:19:11
  TRACK 79 AUDIO
    TITLE "0:"
    INDEX 01 01:20:48
  TRACK 80 AUDIO
    TITLE "2:cjc039_0680"
    INDEX 01 01:21:29
  TRACK 81 AUDIO
    TITLE "0:"
    INDEX 01 01:22:54
